<mxfile host="app.diagrams.net" modified="2020-09-26T02:56:10.941Z" agent="5.0 (Macintosh; Intel Mac OS X 10_15_2) AppleWebKit/537.36 (KHTML, like Gecko) Chrome/85.0.4183.121 Safari/537.36" etag="bdrUMjo8bjOpfdttuaDX" version="13.7.5" type="github">
  <diagram id="ub1dlxy1BxrPRKURkDn_" name="Page-1">
    <mxGraphModel dx="946" dy="581" grid="1" gridSize="10" guides="1" tooltips="1" connect="1" arrows="1" fold="1" page="1" pageScale="1" pageWidth="827" pageHeight="1169" math="0" shadow="0">
      <root>
        <mxCell id="0" />
        <mxCell id="1" parent="0" />
        <mxCell id="Z5eZXOIaYMzx_eTY0rpU-8" value="" style="edgeStyle=orthogonalEdgeStyle;rounded=0;orthogonalLoop=1;jettySize=auto;html=1;" edge="1" parent="1" source="Z5eZXOIaYMzx_eTY0rpU-1" target="Z5eZXOIaYMzx_eTY0rpU-2">
          <mxGeometry relative="1" as="geometry" />
        </mxCell>
        <mxCell id="Z5eZXOIaYMzx_eTY0rpU-1" value="点击添加" style="rounded=1;whiteSpace=wrap;html=1;" vertex="1" parent="1">
          <mxGeometry x="275" y="50" width="120" height="60" as="geometry" />
        </mxCell>
        <mxCell id="Z5eZXOIaYMzx_eTY0rpU-7" style="edgeStyle=orthogonalEdgeStyle;rounded=0;orthogonalLoop=1;jettySize=auto;html=1;" edge="1" parent="1" source="Z5eZXOIaYMzx_eTY0rpU-2">
          <mxGeometry relative="1" as="geometry">
            <mxPoint x="470" y="260" as="targetPoint" />
          </mxGeometry>
        </mxCell>
        <mxCell id="Z5eZXOIaYMzx_eTY0rpU-18" style="edgeStyle=orthogonalEdgeStyle;rounded=0;orthogonalLoop=1;jettySize=auto;html=1;entryX=0.5;entryY=0;entryDx=0;entryDy=0;" edge="1" parent="1" source="Z5eZXOIaYMzx_eTY0rpU-2" target="Z5eZXOIaYMzx_eTY0rpU-3">
          <mxGeometry relative="1" as="geometry">
            <mxPoint x="200" y="430" as="targetPoint" />
            <Array as="points">
              <mxPoint x="200" y="190" />
            </Array>
          </mxGeometry>
        </mxCell>
        <mxCell id="Z5eZXOIaYMzx_eTY0rpU-2" value="是否有initStyle" style="rhombus;whiteSpace=wrap;html=1;" vertex="1" parent="1">
          <mxGeometry x="260" y="150" width="150" height="80" as="geometry" />
        </mxCell>
        <mxCell id="Z5eZXOIaYMzx_eTY0rpU-3" value="添加组件" style="rounded=1;whiteSpace=wrap;html=1;" vertex="1" parent="1">
          <mxGeometry x="140" y="440" width="120" height="60" as="geometry" />
        </mxCell>
        <mxCell id="Z5eZXOIaYMzx_eTY0rpU-11" value="" style="edgeStyle=orthogonalEdgeStyle;rounded=0;orthogonalLoop=1;jettySize=auto;html=1;" edge="1" parent="1" source="Z5eZXOIaYMzx_eTY0rpU-4" target="Z5eZXOIaYMzx_eTY0rpU-10">
          <mxGeometry relative="1" as="geometry" />
        </mxCell>
        <mxCell id="Z5eZXOIaYMzx_eTY0rpU-13" value="" style="edgeStyle=orthogonalEdgeStyle;rounded=0;orthogonalLoop=1;jettySize=auto;html=1;" edge="1" parent="1" source="Z5eZXOIaYMzx_eTY0rpU-4" target="Z5eZXOIaYMzx_eTY0rpU-9">
          <mxGeometry relative="1" as="geometry" />
        </mxCell>
        <mxCell id="Z5eZXOIaYMzx_eTY0rpU-4" value="显示多样式（styleList）" style="rounded=1;whiteSpace=wrap;html=1;" vertex="1" parent="1">
          <mxGeometry x="410" y="260" width="120" height="60" as="geometry" />
        </mxCell>
        <mxCell id="Z5eZXOIaYMzx_eTY0rpU-12" value="" style="edgeStyle=orthogonalEdgeStyle;rounded=0;orthogonalLoop=1;jettySize=auto;html=1;" edge="1" parent="1" source="Z5eZXOIaYMzx_eTY0rpU-9" target="Z5eZXOIaYMzx_eTY0rpU-10">
          <mxGeometry relative="1" as="geometry" />
        </mxCell>
        <mxCell id="Z5eZXOIaYMzx_eTY0rpU-9" value="选择样式" style="rounded=1;whiteSpace=wrap;html=1;" vertex="1" parent="1">
          <mxGeometry x="410" y="350" width="120" height="60" as="geometry" />
        </mxCell>
        <mxCell id="Z5eZXOIaYMzx_eTY0rpU-19" style="edgeStyle=orthogonalEdgeStyle;rounded=0;orthogonalLoop=1;jettySize=auto;html=1;entryX=1;entryY=0.5;entryDx=0;entryDy=0;" edge="1" parent="1" source="Z5eZXOIaYMzx_eTY0rpU-10" target="Z5eZXOIaYMzx_eTY0rpU-3">
          <mxGeometry relative="1" as="geometry" />
        </mxCell>
        <mxCell id="Z5eZXOIaYMzx_eTY0rpU-10" value="defaultStyle中数据替换为样式code" style="rounded=1;whiteSpace=wrap;html=1;" vertex="1" parent="1">
          <mxGeometry x="410" y="440" width="120" height="60" as="geometry" />
        </mxCell>
        <mxCell id="Z5eZXOIaYMzx_eTY0rpU-20" value="否" style="text;html=1;resizable=0;autosize=1;align=center;verticalAlign=middle;points=[];fillColor=none;strokeColor=none;rounded=0;" vertex="1" parent="1">
          <mxGeometry x="215" y="170" width="30" height="20" as="geometry" />
        </mxCell>
        <mxCell id="Z5eZXOIaYMzx_eTY0rpU-21" value="是" style="text;html=1;resizable=0;autosize=1;align=center;verticalAlign=middle;points=[];fillColor=none;strokeColor=none;rounded=0;" vertex="1" parent="1">
          <mxGeometry x="420" y="170" width="30" height="20" as="geometry" />
        </mxCell>
      </root>
    </mxGraphModel>
  </diagram>
</mxfile>
